<mxfile host="app.diagrams.net" modified="2022-03-11T07:36:59.920Z" agent="5.0 (Windows NT 10.0; Win64; x64) AppleWebKit/537.36 (KHTML, like Gecko) Chrome/99.0.4844.51 Safari/537.36" etag="PXTWiWBR-McnShG6Zm4x" version="16.6.5" type="github">
  <diagram id="5hH9G8o05Std-P54FKie" name="Page-1">
    <mxGraphModel dx="981" dy="548" grid="1" gridSize="10" guides="1" tooltips="1" connect="1" arrows="1" fold="1" page="1" pageScale="1" pageWidth="827" pageHeight="1169" math="0" shadow="0">
      <root>
        <mxCell id="0" />
        <mxCell id="1" parent="0" />
        <mxCell id="Ihs2y4VIiGP6066TLS51-1" value="Actor" style="shape=umlActor;verticalLabelPosition=bottom;verticalAlign=top;html=1;outlineConnect=0;" vertex="1" parent="1">
          <mxGeometry x="210" y="350" width="30" height="60" as="geometry" />
        </mxCell>
        <mxCell id="Ihs2y4VIiGP6066TLS51-2" value="Zaznamenat vrácení" style="ellipse;whiteSpace=wrap;html=1;" vertex="1" parent="1">
          <mxGeometry x="480" y="280" width="150" height="80" as="geometry" />
        </mxCell>
        <mxCell id="Ihs2y4VIiGP6066TLS51-3" value="" style="endArrow=none;html=1;rounded=0;entryX=0;entryY=0.5;entryDx=0;entryDy=0;" edge="1" parent="1" target="Ihs2y4VIiGP6066TLS51-2">
          <mxGeometry width="50" height="50" relative="1" as="geometry">
            <mxPoint x="270" y="410" as="sourcePoint" />
            <mxPoint x="380" y="360" as="targetPoint" />
          </mxGeometry>
        </mxCell>
        <mxCell id="Ihs2y4VIiGP6066TLS51-4" value="Vrácení knihy" style="ellipse;whiteSpace=wrap;html=1;" vertex="1" parent="1">
          <mxGeometry x="400" y="410" width="150" height="80" as="geometry" />
        </mxCell>
        <mxCell id="Ihs2y4VIiGP6066TLS51-5" value="Vrácení audiovizuálního díla" style="ellipse;whiteSpace=wrap;html=1;" vertex="1" parent="1">
          <mxGeometry x="580" y="410" width="150" height="80" as="geometry" />
        </mxCell>
        <mxCell id="Ihs2y4VIiGP6066TLS51-10" value="" style="edgeStyle=elbowEdgeStyle;elbow=vertical;endArrow=block;html=1;rounded=0;exitX=0.5;exitY=0;exitDx=0;exitDy=0;entryX=0.5;entryY=1;entryDx=0;entryDy=0;endFill=0;" edge="1" parent="1" source="Ihs2y4VIiGP6066TLS51-4" target="Ihs2y4VIiGP6066TLS51-2">
          <mxGeometry width="50" height="50" relative="1" as="geometry">
            <mxPoint x="530" y="410" as="sourcePoint" />
            <mxPoint x="580" y="360" as="targetPoint" />
          </mxGeometry>
        </mxCell>
        <mxCell id="Ihs2y4VIiGP6066TLS51-11" value="" style="edgeStyle=elbowEdgeStyle;elbow=vertical;endArrow=block;html=1;rounded=0;exitX=0.407;exitY=-0.027;exitDx=0;exitDy=0;exitPerimeter=0;entryX=0.5;entryY=1;entryDx=0;entryDy=0;endFill=0;" edge="1" parent="1" source="Ihs2y4VIiGP6066TLS51-5" target="Ihs2y4VIiGP6066TLS51-2">
          <mxGeometry width="50" height="50" relative="1" as="geometry">
            <mxPoint x="510" y="410" as="sourcePoint" />
            <mxPoint x="560" y="360" as="targetPoint" />
          </mxGeometry>
        </mxCell>
        <mxCell id="Ihs2y4VIiGP6066TLS51-12" value="Uložit pokutu" style="ellipse;whiteSpace=wrap;html=1;" vertex="1" parent="1">
          <mxGeometry x="670" y="170" width="120" height="80" as="geometry" />
        </mxCell>
        <mxCell id="Ihs2y4VIiGP6066TLS51-13" value="" style="endArrow=classic;html=1;rounded=0;elbow=vertical;exitX=0;exitY=1;exitDx=0;exitDy=0;entryX=1;entryY=0.5;entryDx=0;entryDy=0;dashed=1;" edge="1" parent="1" source="Ihs2y4VIiGP6066TLS51-12" target="Ihs2y4VIiGP6066TLS51-2">
          <mxGeometry width="50" height="50" relative="1" as="geometry">
            <mxPoint x="600" y="250" as="sourcePoint" />
            <mxPoint x="650" y="200" as="targetPoint" />
          </mxGeometry>
        </mxCell>
        <mxCell id="Ihs2y4VIiGP6066TLS51-14" value="Extend" style="text;html=1;align=center;verticalAlign=middle;resizable=0;points=[];autosize=1;strokeColor=none;fillColor=none;" vertex="1" parent="1">
          <mxGeometry x="645" y="250" width="50" height="20" as="geometry" />
        </mxCell>
      </root>
    </mxGraphModel>
  </diagram>
</mxfile>
